<svg width="464" height="412" viewBox="0 0 464 412" fill="none" xmlns="http://www.w3.org/2000/svg">
<path fill-rule="evenodd" clip-rule="evenodd" d="M322.411 1.7506C319.622 2.55723 315.646 5.51227 313.579 8.31734C311.51 11.1224 298.242 33.6625 284.094 58.4061C254.255 110.596 255.582 108.508 249.842 112.293C245.737 115.002 241.171 115.213 186.96 115.223C129.451 115.234 128.394 115.291 121.595 118.785C116.006 121.657 113.405 124.604 108.006 134.176C104.334 140.688 78.5296 185.747 50.6644 234.306L0 322.599V367.299V412H44.8328H89.664L109.786 376.877C120.853 357.559 138.913 326.127 149.918 307.027C160.923 287.926 188.633 239.707 211.499 199.874C234.363 160.039 254.766 125.43 256.84 122.965C258.914 120.5 263.228 117.756 266.428 116.868C270.1 115.848 307.594 115.248 368.122 115.243L464 115.234V57.6169V0L395.742 0.142063C358.199 0.22099 325.201 0.943959 322.411 1.7506ZM318.803 209.397C311.573 211.779 308.413 215.04 300.77 228.008C290.977 244.621 250.699 314.815 247.954 320.05L246.094 323.602H355.047H464V265.985V208.368L392.585 208.493C353.308 208.56 320.105 208.968 318.803 209.397Z" fill="#EDEDED"/>
</svg>
